<svg xmlns="http://www.w3.org/2000/svg" viewBox="0 0 1211.91 950.83"><defs><style>.cls-1{fill:#fff;}</style></defs><title>PureBlackFoxVector</title><g id="Layer_2" data-name="Layer 2"><g id="Layer_1-2" data-name="Layer 1"><path class="cls-1" d="M1,413V1H1212.91V951.85H1V414c3.5,3,7.21,5.87,10.48,9.14Q145.05,556.5,278.47,690a14.86,14.86,0,0,0,11.86,4.78q71-1.45,142-2.57c5.45-.1,5.85.52,4.47,5.7q-11.7,44.16-23.32,88.34-15,57.24-29.86,114.51c-.9,3.44-1.5,7-2.39,11.16a40.79,40.79,0,0,0,5.18-.87q31.1-10.12,62.16-20.35,31.53-10.32,63.08-20.64,31.08-10.14,62.18-20.25,32-10.46,64-21c20.72-6.79,41.49-13.4,62.11-20.46,4.76-1.63,7.88-1.18,11.54,2.39C757,855.23,802.84,899.43,848.31,944c5.1,5,9.8,6,16.44,4.68,19-3.74,38-6.87,57-10.28,13.11-2.36,26.2-4.81,39.31-7.15,4.12-.74,4.59-2.78,3.11-6.42-8.31-20.51-16.8-41-24.6-61.67-15.27-40.48-30.13-81.12-45.12-121.71a9,9,0,0,1,0-2.81c6.07,3,11.58,5.94,17.32,8.4a201.3,201.3,0,0,0,58.77,15.17c11.08,1.15,22.87,1.12,33.61-1.44,18.88-4.51,37.22-11.34,55.76-17.25q26.4-8.4,52.74-16.94c2.19-.71,4.24-1.84,7.21-3.17-2-1.29-2.72-1.88-3.55-2.33-10.84-5.84-21.79-11.49-32.53-17.52Q1038,677.91,992.54,651.9c-1.34-.76-2.68-3.7-2.24-5,6.29-19.12,12.9-38.14,19.41-57.19,8.82-25.83,17.71-51.63,26.33-77.53,1.56-4.68,3.7-6.5,8.89-6.37,53.15,1.24,106.3,2.22,159.46,3.25,6.83.14,7.46-.95,4.79-7-4.4-10.07-8.61-20.21-12.93-30.31Q1160,387,1123.82,302.25c-2.88-6.77-6.3-13.28-5.71-21.38,1.72-23.59,2.69-47.24,3.88-70.88q4.53-90.12,9-180.24a34.06,34.06,0,0,0-.46-5,9.14,9.14,0,0,0-4.4,3.87q-38.67,68.79-77.26,137.63-29.6,52.69-59.24,105.36c-3.47,6.15-3.5,6.07-9,1.69q-47.16-37.85-94.34-75.66-35.85-28.77-71.7-57.56a33.78,33.78,0,0,0-4.49-2.62c-.49,1.81-1.42,3.63-1.42,5.44q-.09,174.5,0,349c0,1.16.42,2.65-.14,3.42-.92,1.29-2.56,3.06-3.77,3-5.3-.4-10.56-1.36-15.82-2.18-31.44-4.9-62.88-9.67-94.78-10.49-6.66-.17-13.31-.68-20-1.19-4.72-.36-5.2-1.35-2.79-5.58,3-5.2,6.28-10.23,9.1-15.51Q710.7,406.72,740.72,350a10.67,10.67,0,0,0,1.34-6.57c-1.3-6-3.25-11.87-5-17.78q-10.36-35.73-20.73-71.45-8.68-30-17.31-60-9-31.17-18.1-62.33-8.91-30.68-17.81-61.37c-5.92-20.46-11.8-40.94-17.8-61.38-.46-1.57-1.66-2.93-2.51-4.39-1.2,1.24-2.75,2.29-3.55,3.74-10.14,18.37-20.14,36.81-30.24,55.2Q559,155,508.82,246.28c-3.09,5.63-3.64,5.62-7.55.4q-28-37.38-56.17-74.67-45.25-60.07-90.58-120.09c-.88-1.16-2.44-1.8-3.68-2.69-.6,1.45-1.64,2.87-1.74,4.36q-3.69,58.11-7.2,116.24-2.64,42.66-5.29,85.32c-.22,3.64-1.83,4.33-4.87,2.82-1-.51-2-1.14-3.09-1.63q-89-41.13-178.1-82.21c-1.38-.63-3-.82-6.15-1.68L244,437.89c-17.81-1.87-33.84-3.51-49.86-5.25-21.36-2.32-42.71-4.72-64.07-7.06-20.7-2.27-41.4-4.49-62.1-6.79-20-2.22-40.05-4.56-60.1-6.69C5.61,411.87,3.28,412.68,1,413Z" transform="translate(-1 -1.02)"/><path d="M1,413c2.28-.32,4.61-1.13,6.83-.9,20,2.13,40.07,4.47,60.1,6.69,20.7,2.3,41.4,4.52,62.1,6.79,21.36,2.34,42.71,4.74,64.07,7.06,16,1.74,32.05,3.38,49.86,5.25L144.4,172.45c3.19.86,4.77,1.05,6.15,1.68q89.07,41.07,178.1,82.21c1.06.49,2.05,1.12,3.09,1.63,3,1.51,4.65.82,4.87-2.82q2.58-42.66,5.29-85.32,3.59-58.12,7.2-116.24c.1-1.49,1.14-2.91,1.74-4.36,1.24.89,2.8,1.53,3.68,2.69q45.36,60,90.58,120.09,28.11,37.32,56.17,74.67c3.91,5.22,4.46,5.23,7.55-.4Q558.92,155,609.05,63.71c10.1-18.39,20.1-36.83,30.24-55.2.8-1.45,2.35-2.5,3.55-3.74.85,1.46,2,2.82,2.51,4.39,6,20.44,11.88,40.92,17.8,61.38S675,111.46,681,131.91q9,31.17,18.1,62.33,8.67,30,17.31,60,10.33,35.73,20.73,71.45c1.71,5.91,3.66,11.78,5,17.78a10.67,10.67,0,0,1-1.34,6.57q-30,56.73-60.25,113.33c-2.82,5.28-6.13,10.31-9.1,15.51-2.41,4.23-1.93,5.22,2.79,5.58,6.65.51,13.3,1,20,1.19,31.9.82,63.34,5.59,94.78,10.49,5.26.82,10.52,1.78,15.82,2.18,1.21.09,2.85-1.68,3.77-3,.56-.77.14-2.26.14-3.42q0-174.51,0-349c0-1.81.93-3.63,1.42-5.44a33.78,33.78,0,0,1,4.49,2.62q35.88,28.74,71.7,57.56,47.16,37.85,94.34,75.66c5.45,4.38,5.48,4.46,9-1.69q29.64-52.67,59.24-105.36,38.64-68.82,77.26-137.63a9.14,9.14,0,0,1,4.4-3.87,34.06,34.06,0,0,1,.46,5q-4.44,90.12-9,180.24c-1.19,23.64-2.16,47.29-3.88,70.88-.59,8.1,2.83,14.61,5.71,21.38q36.06,84.78,72.43,169.41c4.32,10.1,8.53,20.24,12.93,30.31,2.67,6.1,2,7.19-4.79,7-53.16-1-106.31-2-159.46-3.25-5.19-.13-7.33,1.69-8.89,6.37-8.62,25.9-17.51,51.7-26.33,77.53-6.51,19.05-13.12,38.07-19.41,57.19-.44,1.34.9,4.28,2.24,5q45.5,26,91.22,51.66c10.74,6,21.69,11.68,32.53,17.52.83.45,1.59,1,3.55,2.33-3,1.33-5,2.46-7.21,3.17q-26.34,8.55-52.74,16.94c-18.54,5.91-36.88,12.74-55.76,17.25-10.74,2.56-22.53,2.59-33.61,1.44A201.3,201.3,0,0,1,911.75,747c-5.74-2.46-11.25-5.44-17.32-8.4a9,9,0,0,0,0,2.81c15,40.59,29.85,81.23,45.12,121.71,7.8,20.71,16.29,41.16,24.6,61.67,1.48,3.64,1,5.68-3.11,6.42-13.11,2.34-26.2,4.79-39.31,7.15-19,3.41-38.07,6.54-57,10.28-6.64,1.31-11.34.32-16.44-4.68C802.84,899.43,757,855.23,711.46,810.78c-3.66-3.57-6.78-4-11.54-2.39-20.62,7.06-41.39,13.67-62.11,20.46q-32,10.47-64,21Q542.71,860,511.62,870.07q-31.56,10.3-63.08,20.64-31.08,10.18-62.16,20.35a40.79,40.79,0,0,1-5.18.87c.89-4.21,1.49-7.72,2.39-11.16q14.88-57.25,29.86-114.51,11.58-44.19,23.32-88.34c1.38-5.18,1-5.8-4.47-5.7q-71,1.23-142,2.57A14.86,14.86,0,0,1,278.47,690q-133.38-133.54-267-266.87C8.21,419.87,4.5,417,1,414Zm668.36,84.3-.1.78c-4.65.31-9.31.52-13.94.95-15.23,1.44-30.58,2.13-45.63,4.65a233.44,233.44,0,0,0-59.4,18.41c-21.09,9.73-41.23,21-58.88,36.29-5.72,5-5.68,5.52-.4,10.92,42.26,43.26,83.94,87.1,126.91,129.64C697,777.24,776.85,854.8,856.53,932.5c1.71,1.66,5.47,2.29,8,1.86,24.78-4.17,49.5-8.72,74.26-13,7.79-1.36,8.17-2.08,5.29-9.24-7.08-17.59-14.15-35.2-20.88-52.93q-14.25-37.56-28-75.33Q881.86,747,869,710c-8.84-25.29-17.44-50.65-26.16-76-7.75-22.49-15.45-45-23.32-67.46-6-17.11-12.11-34.19-18.47-51.17a7.86,7.86,0,0,0-5.18-4.15c-15.62-2.5-31.24-5.11-47-6.74C722.44,501.72,695.89,499.66,669.36,497.3ZM639.52,39.35l-1.48.18c-.52.82-1.08,1.61-1.54,2.45Q605.77,98,575.05,154.1q-28.69,52.34-57.5,104.59c-2.29,4.13-2.08,7.08.82,10.73,7.35,9.26,14.07,19,21.56,28.16,6.52,7.95,11.79,16.05,10.38,26.94a22,22,0,0,0,.35,4.47c2.46,27.21,4.33,54.49,7.55,81.61,3.21,26.93,7.8,53.69,11.76,80.53.53,3.58,2,4.28,5.83,3.67,20.5-3.3,41.07-6.15,61.62-9.14,4.12-.6,8.32-.87,12.34-1.87a8.88,8.88,0,0,0,5-3.57c5.19-8.53,10.28-17.14,15-25.94,18.42-34.52,36.62-69.15,55.08-103.64a16.74,16.74,0,0,0,1.2-13.9c-1.68-5.23-3.17-10.52-4.7-15.79q-8.76-30.21-17.5-60.43-8.91-30.67-17.84-61.35-10.2-35.25-20.34-70.51-10.39-36-20.83-71.93C643.13,50.92,641.29,45.14,639.52,39.35ZM40.22,429.92l-.6,1.28c1.05,1.21,2,2.5,3.15,3.63q55,54.93,110,109.84Q218,609.88,283.08,675.16c3,3,5.72,5.66,10.58,5.56,42-.83,84-1.37,125.93-2.18,12.42-.23,12.05-.59,15.38-12.82,5.65-20.7,11.76-41.27,17.76-61.87,3.12-10.7,6.41-21.35,9.62-32,.78-2.58,1.16-4.87-2.43-5.79-17.73-4.54-35.42-9.2-53.14-13.75-19.34-5-38.7-9.84-58-14.83-22.87-5.92-45.67-12.1-68.6-17.75-4.29-1.06-6.68-2.94-8.14-6.87-6.64-17.94-13.55-35.78-20-53.79-1.64-4.58-4.07-6.71-8.85-7.21-28.32-3-56.62-6.13-84.92-9.24q-45.93-5-91.86-10.11C57.68,431.53,48.94,430.77,40.22,429.92ZM400.46,891.31c2.83-.7,4.36-1,5.84-1.47,6.81-2.19,13.6-4.43,20.4-6.66q35.81-11.7,71.61-23.4,31.08-10.15,62.14-20.33,31.53-10.31,63.08-20.58c20.86-6.82,41.7-13.74,62.6-20.46,6.45-2.08,6.75-2.63,2-7.45-28.76-29-57.92-57.54-86.2-87-35.44-36.88-70.55-74.06-108.3-108.63-3.87-3.55-7.76-7.08-12.83-11.7ZM1177,494.69c.18-.49.36-1,.53-1.46a22.66,22.66,0,0,0-2-2.66c-6.66-6.76-13.37-13.49-20-20.24Q1074,388.16,992.62,305.91c-3.21-3.25-5.07-3.69-8.15.23C974.4,319,964,331.55,953.67,344.2q-57,69.85-114,139.71a34.14,34.14,0,0,0-2.37,4.08ZM349.1,281.38c-.37,2.33-.71,3.74-.8,5.16q-4.47,74.55-8.95,149.11a8,8,0,0,0,3.5,7.64q65.85,50.35,131.53,100.95c2.81,2.16,4.4,1.68,6.72-.6,4.85-4.77,9.66-9.73,15.14-13.71,7.78-5.66,16.12-10.54,24.27-15.67,2-1.29,3.89-2.17,2.82-5.36-8-23.92-15.22-48.16-24-71.79-12.65-34-26.39-67.54-39.88-101.2a12.73,12.73,0,0,0-5.75-6.27c-31.15-14.64-62.42-29-93.67-43.47C356.61,284.61,353.16,283.16,349.1,281.38Zm576,230.88v-.33c-4.34,0-8.67-.06-13,0q-39.24.66-78.48,1.38c-2.6,0-5.36-.09-3.88,4.09,3.66,10.36,7.16,20.77,10.74,31.15q12.93,37.52,25.87,75,13.93,40.6,27.76,81.25c1,2.95,2.39,3.8,5.06,1.67,8.2-6.55,16.54-12.91,24.66-19.55,15.21-12.42,30.27-25,45.46-37.47,4.29-3.51,8.4-6.88,9.88-12.71,1.34-5.3,3.44-10.42,5.21-15.61q17.48-51.27,34.95-102.53c2.07-6.12,1.94-6.35-4.75-6.37Q969.81,512.21,925.07,512.26ZM823.52,166V464.28c5.85-6.76,10.83-12.44,15.74-18.2q64.34-75.48,128.66-151c7.56-8.87,7.47-7.24-1.17-14.2q-63-50.8-126.18-101.39C835.29,175.26,830,171.11,823.52,166ZM171.05,199l-1.18,1.08c.47,1.69.82,3.43,1.44,5.06q17.07,45.32,34.18,90.6,25.9,68.91,51.59,137.89c1.67,4.51,4,6.24,8.53,6.71q26.34,2.71,52.62,5.85c6.44.76,6.64.75,7-5.95,1.1-19.29,2.15-38.59,3.33-57.87q3.14-51.14,6.43-102.24c.22-3.36-.44-5.78-3.74-7.3-13.91-6.36-27.77-12.85-41.66-19.27l-99.23-45.77C184,204.83,177.49,201.93,171.05,199ZM362.85,86l-1.43.39c-.22,1.4-.54,2.79-.63,4.2-3.5,56.19-6.91,112.38-10.61,168.55-.36,5.5,1.49,8.07,6.28,10.2,17,7.58,33.86,15.53,50.76,23.34q27.86,12.89,55.7,25.79c3.39,1.58,5.56,1.54,7.61-2.33,7.29-13.84,14.42-27.81,22.71-41,4.66-7.42,3.43-12.33-1.5-18.81q-60.21-79.09-119.89-158.6C368.89,93.8,365.85,89.92,362.85,86Zm751-5.14-1.25-.14L1006.4,270c2.88.42,4.3.75,5.73.82,28.78,1.39,57.56,2.67,86.32,4.19,5,.27,6.68-1.37,6.91-6.37q4.32-92.06,8.93-184.11A21.84,21.84,0,0,0,1113.87,80.89Zm-28.42,639.64c-2.49-1.52-4-2.48-5.47-3.33q-27.92-15.54-55.84-31.07-20.48-11.4-40.93-22.83c-3.67-2-6.74-1.32-10,1.42-14,11.83-28.1,23.49-42.21,35.16q-13.29,11-26.72,21.76c-3.09,2.48-3.14,4.51.31,6.45,2.61,1.47,5.23,3,7.94,4.21,18.93,8.71,39,13.72,59.52,16.1,9.6,1.12,20,1.32,29.18-1.13,22.16-5.9,43.84-13.6,65.7-20.61C1072.75,724.81,1078.51,722.84,1085.45,720.53Zm-578-442.71c-1.38,2.27-2.45,3.88-3.37,5.57-5.53,10.07-10.6,20.42-16.67,30.15-5.38,8.63-6.87,16.57-3.23,26.66,7.72,21.43,13.87,43.41,20.93,65.08,6.68,20.52,13.61,41,20.6,61.37,3.92,11.49,8.12,22.88,12.36,34.26.48,1.3,2.53,3.32,3,3.11,5.1-2.36,10.51-4.52,14.75-8,1.37-1.14-.41-6.1-.79-9.31-.18-1.49-.4-3-.71-4.44-6.86-33.34-9.93-67.18-13.11-101-2-21.06-3.46-42.17-5.36-63.23a13.42,13.42,0,0,0-2.7-6.24c-5.36-7.42-10.93-14.7-16.45-22C513.82,286,510.86,282.21,507.46,277.82ZM1170.27,450l1.42-.94c-1.67-3.71-3.41-7.39-5-11.13q-27.77-65.22-55.46-130.47c-1.61-3.8-3.86-5.7-8.19-5.9-28-1.32-55.9-2.86-83.85-4.3-1.41-.07-2.82.18-5.74.38ZM427.74,543.47l.6-1.75c-4.53-3.3-9.14-6.5-13.58-9.93-27.64-21.39-55.43-42.58-82.72-64.41-7-5.6-14.41-7.64-22.86-8.38-12.76-1.11-25.5-2.6-38.23-4-5-.57-5.79.33-4.05,5,5.23,13.84,10.26,27.77,15.76,41.5,1,2.44,3.52,5.3,5.9,6,17.29,4.84,34.72,9.18,52.11,13.64q39.61,10.15,79.25,20.26C422.54,542,425.13,542.74,427.74,543.47Z" transform="translate(-1 -1.02)"/><path class="cls-1" d="M669.36,497.3c26.53,2.36,53.08,4.42,79.56,7.17,15.73,1.63,31.35,4.24,47,6.74a7.86,7.86,0,0,1,5.18,4.15c6.36,17,12.47,34.06,18.47,51.17,7.87,22.46,15.57,45,23.32,67.46,8.72,25.33,17.32,50.69,26.16,76q12.91,37,26.22,73.85,13.72,37.75,28,75.33c6.73,17.73,13.8,35.34,20.88,52.93,2.88,7.16,2.5,7.88-5.29,9.24-24.76,4.32-49.48,8.87-74.26,13-2.55.43-6.31-.2-8-1.86C776.85,854.8,697,777.24,617.92,698.94,575,656.4,533.27,612.56,491,569.3c-5.28-5.4-5.32-5.95.4-10.92,17.65-15.3,37.79-26.56,58.88-36.29a233.44,233.44,0,0,1,59.4-18.41c15-2.52,30.4-3.21,45.63-4.65,4.63-.43,9.29-.64,13.94-.95Z" transform="translate(-1 -1.02)"/><path class="cls-1" d="M639.52,39.35c1.77,5.79,3.61,11.57,5.3,17.38q10.45,36,20.83,71.93,10.19,35.25,20.34,70.51,8.88,30.69,17.84,61.35,8.76,30.21,17.5,60.43c1.53,5.27,3,10.56,4.7,15.79a16.74,16.74,0,0,1-1.2,13.9c-18.46,34.49-36.66,69.12-55.08,103.64-4.7,8.8-9.79,17.41-15,25.94a8.88,8.88,0,0,1-5,3.57c-4,1-8.22,1.27-12.34,1.87-20.55,3-41.12,5.84-61.62,9.14-3.78.61-5.3-.09-5.83-3.67-4-26.84-8.55-53.6-11.76-80.53-3.22-27.12-5.09-54.4-7.55-81.61a22,22,0,0,1-.35-4.47c1.41-10.89-3.86-19-10.38-26.94-7.49-9.13-14.21-18.9-21.56-28.16-2.9-3.65-3.11-6.6-.82-10.73q28.94-52.18,57.5-104.59Q605.77,98,636.5,42c.46-.84,1-1.63,1.54-2.45Z" transform="translate(-1 -1.02)"/><path class="cls-1" d="M40.22,429.92c8.72.85,17.46,1.61,26.17,2.56q45.93,5,91.86,10.11c28.3,3.11,56.6,6.26,84.92,9.24,4.78.5,7.21,2.63,8.85,7.21,6.44,18,13.35,35.85,20,53.79,1.46,3.93,3.85,5.81,8.14,6.87,22.93,5.65,45.73,11.83,68.6,17.75,19.33,5,38.69,9.85,58,14.83,17.72,4.55,35.41,9.21,53.14,13.75,3.59.92,3.21,3.21,2.43,5.79-3.21,10.68-6.5,21.33-9.62,32-6,20.6-12.11,41.17-17.76,61.87-3.33,12.23-3,12.59-15.38,12.82-42,.81-83.95,1.35-125.93,2.18-4.86.1-7.62-2.6-10.58-5.56Q217.94,609.9,152.75,544.67q-54.94-55-110-109.84c-1.13-1.13-2.1-2.42-3.15-3.63Z" transform="translate(-1 -1.02)"/><path class="cls-1" d="M400.46,891.31l80.29-307.64c5.07,4.62,9,8.15,12.83,11.7,37.75,34.57,72.86,71.75,108.3,108.63,28.28,29.42,57.44,58,86.2,87,4.8,4.82,4.5,5.37-2,7.45-20.9,6.72-41.74,13.64-62.6,20.46Q592,829.19,560.45,839.45q-31.08,10.14-62.14,20.33-35.81,11.72-71.61,23.4c-6.8,2.23-13.59,4.47-20.4,6.66C404.82,890.32,403.29,890.61,400.46,891.31Z" transform="translate(-1 -1.02)"/><path class="cls-1" d="M1177,494.69,837.27,488a34.14,34.14,0,0,1,2.37-4.08q57-69.87,114-139.71C964,331.55,974.4,319,984.47,306.14c3.08-3.92,4.94-3.48,8.15-.23q81.33,82.3,162.84,164.42c6.68,6.75,13.39,13.48,20,20.24a22.66,22.66,0,0,1,2,2.66C1177.32,493.71,1177.14,494.2,1177,494.69Z" transform="translate(-1 -1.02)"/><path class="cls-1" d="M349.1,281.38c4.06,1.78,7.51,3.23,10.91,4.79,31.25,14.44,62.52,28.83,93.67,43.47a12.73,12.73,0,0,1,5.75,6.27c13.49,33.66,27.23,67.23,39.88,101.2,8.8,23.63,16,47.87,24,71.79,1.07,3.19-.77,4.07-2.82,5.36-8.15,5.13-16.49,10-24.27,15.67-5.48,4-10.29,8.94-15.14,13.71-2.32,2.28-3.91,2.76-6.72.6q-65.67-50.61-131.53-100.95a8,8,0,0,1-3.5-7.64q4.54-74.55,8.95-149.11C348.39,285.12,348.73,283.71,349.1,281.38Z" transform="translate(-1 -1.02)"/><path class="cls-1" d="M925.07,512.26q44.73,0,89.48,0c6.69,0,6.82.25,4.75,6.37q-17.44,51.27-34.95,102.53c-1.77,5.19-3.87,10.31-5.21,15.61-1.48,5.83-5.59,9.2-9.88,12.71-15.19,12.44-30.25,25-45.46,37.47-8.12,6.64-16.46,13-24.66,19.55-2.67,2.13-4.06,1.28-5.06-1.67q-13.85-40.64-27.76-81.25-12.89-37.54-25.87-75c-3.58-10.38-7.08-20.79-10.74-31.15-1.48-4.18,1.28-4,3.88-4.09q39.24-.72,78.48-1.38c4.33-.07,8.66,0,13,0Z" transform="translate(-1 -1.02)"/><path class="cls-1" d="M823.52,166c6.43,5.07,11.77,9.22,17.05,13.46q63.12,50.66,126.18,101.39c8.64,7,8.73,5.33,1.17,14.2q-64.32,75.51-128.66,151c-4.91,5.76-9.89,11.44-15.74,18.2Z" transform="translate(-1 -1.02)"/><path class="cls-1" d="M171.05,199c6.44,2.93,12.9,5.83,19.33,8.79l99.23,45.77c13.89,6.42,27.75,12.91,41.66,19.27,3.3,1.52,4,3.94,3.74,7.3q-3.31,51.12-6.43,102.24c-1.18,19.28-2.23,38.58-3.33,57.87-.38,6.7-.58,6.71-7,5.95q-26.3-3.09-52.62-5.85c-4.5-.47-6.86-2.2-8.53-6.71q-25.53-69-51.59-137.89-17-45.32-34.18-90.6c-.62-1.63-1-3.37-1.44-5.06Z" transform="translate(-1 -1.02)"/><path class="cls-1" d="M362.85,86c3,3.89,6,7.77,9,11.69q59.89,79.35,119.89,158.6c4.93,6.48,6.16,11.39,1.5,18.81-8.29,13.23-15.42,27.2-22.71,41-2,3.87-4.22,3.91-7.61,2.33q-27.81-13-55.7-25.79c-16.9-7.81-33.75-15.76-50.76-23.34-4.79-2.13-6.64-4.7-6.28-10.2,3.7-56.17,7.11-112.36,10.61-168.55.09-1.41.41-2.8.63-4.2Z" transform="translate(-1 -1.02)"/><path class="cls-1" d="M1113.87,80.89a21.84,21.84,0,0,1,.42,3.66q-4.47,92.05-8.93,184.11c-.23,5-1.92,6.64-6.91,6.37-28.76-1.52-57.54-2.8-86.32-4.19-1.43-.07-2.85-.4-5.73-.82L1112.62,80.75Z" transform="translate(-1 -1.02)"/><path class="cls-1" d="M1085.45,720.53c-6.94,2.31-12.7,4.28-18.49,6.13-21.86,7-43.54,14.71-65.7,20.61-9.2,2.45-19.58,2.25-29.18,1.13-20.55-2.38-40.59-7.39-59.52-16.1-2.71-1.25-5.33-2.74-7.94-4.21-3.45-1.94-3.4-4-.31-6.45q13.44-10.77,26.72-21.76c14.11-11.67,28.23-23.33,42.21-35.16,3.23-2.74,6.3-3.47,10-1.42q20.46,11.4,40.93,22.83,27.91,15.55,55.84,31.07C1081.5,718.05,1083,719,1085.45,720.53Z" transform="translate(-1 -1.02)"/><path class="cls-1" d="M507.46,277.82c3.4,4.39,6.36,8.14,9.24,11.94,5.52,7.31,11.09,14.59,16.45,22a13.42,13.42,0,0,1,2.7,6.24c1.9,21.06,3.38,42.17,5.36,63.23,3.18,33.82,6.25,67.66,13.11,101,.31,1.47.53,2.95.71,4.44.38,3.21,2.16,8.17.79,9.31-4.24,3.51-9.65,5.67-14.75,8-.46.21-2.51-1.81-3-3.11-4.24-11.38-8.44-22.77-12.36-34.26-7-20.42-13.92-40.85-20.6-61.37-7.06-21.67-13.21-43.65-20.93-65.08-3.64-10.09-2.15-18,3.23-26.66,6.07-9.73,11.14-20.08,16.67-30.15C505,281.7,506.08,280.09,507.46,277.82Z" transform="translate(-1 -1.02)"/><path class="cls-1" d="M1170.27,450,1013.44,297.67c2.92-.2,4.33-.45,5.74-.38,28,1.44,55.9,3,83.85,4.3,4.33.2,6.58,2.1,8.19,5.9q27.65,65.26,55.46,130.47c1.6,3.74,3.34,7.42,5,11.13Z" transform="translate(-1 -1.02)"/><path class="cls-1" d="M427.74,543.47c-2.61-.73-5.2-1.51-7.82-2.18Q380.3,531.15,340.67,521c-17.39-4.46-34.82-8.8-52.11-13.64-2.38-.66-4.92-3.52-5.9-6-5.5-13.73-10.53-27.66-15.76-41.5-1.74-4.63-.94-5.53,4.05-5,12.73,1.43,25.47,2.92,38.23,4,8.45.74,15.85,2.78,22.86,8.38,27.29,21.83,55.08,43,82.72,64.41,4.44,3.43,9.05,6.63,13.58,9.93Z" transform="translate(-1 -1.02)"/></g></g></svg>